<svg viewBox="0 0 26 26" fill="none" xmlns="http://www.w3.org/2000/svg">
<path d="M0 12.6405C0.00147098 18.8598 4.52391 24.1552 10.6663 25.1298V16.2942H7.45894V12.6405H10.6701V9.85924C10.5265 8.54133 10.9767 7.22787 11.8985 6.27507C12.8202 5.32227 14.1181 4.82889 15.44 4.92875C16.3889 4.94408 17.3353 5.02858 18.2719 5.1816V8.29033H16.6739C16.1238 8.21828 15.5707 8.39997 15.1704 8.78422C14.7702 9.16848 14.5661 9.71371 14.6157 10.2663V12.6405H18.1189L17.5589 16.2954H14.6157V25.1298C21.2586 24.08 25.9168 18.0132 25.2157 11.3246C24.5145 4.63592 18.6996 -0.333054 11.9834 0.0174524C5.26723 0.367959 0.00106761 5.91524 0 12.6405Z" fill="currentColor"/>
</svg>
